<?xml version="1.0" encoding="UTF-8" standalone="no"?>
<svg
   height="800"
   width="1200"
   viewBox="-67.88565 -36 588.3423 216"
   version="1.1"
   id="svg1"
   sodipodi:docname="RiotGames.svg"
   xmlns:inkscape="http://www.inkscape.org/namespaces/inkscape"
   xmlns:sodipodi="http://sodipodi.sourceforge.net/DTD/sodipodi-0.dtd"
   xmlns="http://www.w3.org/2000/svg"
   xmlns:svg="http://www.w3.org/2000/svg">
  <defs
     id="defs1" />
  <sodipodi:namedview
     id="namedview1"
     pagecolor="#ffffff"
     bordercolor="#000000"
     borderopacity="0.25"
     inkscape:showpageshadow="2"
     inkscape:pageopacity="0.0"
     inkscape:pagecheckerboard="0"
     inkscape:deskcolor="#d1d1d1"
     showgrid="false" />
  <path
     d="m 73.33,130.566 -6.542,-16.855 63.228,3.251 -2.839,26.976 z M 88.48,0 0,41.797 13.684,104.78 h 18.048 l -3.117,-45.054 2.769,-0.858 10.852,45.912 h 18.75 l -0.694,-54.88 2.77,-0.859 9.484,55.739 h 19.852 l 4.683,-66.29 2.768,-0.86 4.913,67.15 h 26.251 l 9.24,-92.183 z m 273.252,137.113 -0.183,-5.255 18.165,-0.214 0.167,-5.727 -18.547,-0.23 -0.185,-5.32 24.435,-0.573 0.2,-6.282 H 352.82 L 351.837,144 h 34.556 l -0.243,-6.295 z m -164.367,-11.21 -0.388,5.705 9.168,0.306 -0.116,5.791 -19.189,-0.563 0.836,-16.725 26.384,-0.61 -0.381,-6.295 h -34.08 L 176.543,144 h 38.83 l -1.006,-18.392 z m 240.52,2.36 -25.185,-4.258 0.109,-3.3 24.093,-0.899 -0.608,-6.294 h -30.97 l -1.584,15.802 25.603,4.452 0.116,2.904 -26.64,1.035 -0.653,6.295 h 37.285 z M 335.116,144 332.06,113.512 h -8.774 l -12.604,14.533 -12.605,-14.533 h -8.773 L 286.248,144 h 10.307 l 0.986,-19.779 13.141,13.484 13.14,-13.484 L 324.81,144 Z M 291.8,1.863 h -20.628 l -1.878,94.285 h 24.923 z m 63.917,73.777 -22.761,0.734 -0.755,-55.45 23.806,0.72 z M 375.665,1.905 h -64.312 l -2.504,94.243 h 71.383 z m 76.906,20.592 -2.297,-20.634 h -63.365 l 0.536,18.38 20.266,0.702 2.078,75.204 h 24.973 l -7.47,-74.527 z m -244.969,-1.346 19.878,-0.665 2.265,18.785 -22.943,10.837 z m 23.223,74.997 h 27.07 L 240.253,53.832 254.332,46.14 244.713,1.863 h -69.104 l -2.274,20.433 15.458,-0.516 -7.454,74.368 h 24.193 l 0.654,-23.706 17.432,-9.523 z m 13.166,34.111 2.096,-9.975 10.064,-0.455 2.103,10.01 z M 261.231,144 h 10.436 L 263.41,113.51 H 238.923 L 230.667,144 h 10.436 l 1.616,-7.692 16.941,0.219 z"
     fill="#d22a36"
     id="path1" />
</svg>
